<?xml version="1.0" encoding="UTF-8" standalone="no"?>
<!DOCTYPE svg PUBLIC "-//W3C//DTD SVG 1.1//EN" "http://www.w3.org/Graphics/SVG/1.1/DTD/svg11.dtd">
<svg width="100%" height="100%" viewBox="0 0 400 400" version="1.1" xmlns="http://www.w3.org/2000/svg" xmlns:xlink="http://www.w3.org/1999/xlink" xml:space="preserve" xmlns:serif="http://www.serif.com/" style="fill-rule:evenodd;clip-rule:evenodd;stroke-linejoin:round;stroke-miterlimit:2;">
    <rect id="Artboard1" x="0" y="0" width="400" height="400" style="fill:none;"/>
    <g id="Artboard11" serif:id="Artboard1">
        <g transform="matrix(8.66455e-17,1.41503,-1.81244,1.1098e-16,618.985,-162.045)">
            <g id="Layer1">
                <g>
                    <g transform="matrix(300,0,0,300,121.18,330.488)">
                        <path d="M0.309,-0.018L0.309,-0L0.025,-0L0.025,-0.018L0.048,-0.018C0.076,-0.018 0.096,-0.026 0.108,-0.042C0.116,-0.052 0.12,-0.077 0.12,-0.117L0.12,-0.545C0.12,-0.578 0.118,-0.601 0.113,-0.611C0.11,-0.619 0.103,-0.626 0.093,-0.632C0.079,-0.64 0.064,-0.644 0.048,-0.644L0.025,-0.644L0.025,-0.662L0.309,-0.662L0.309,-0.644L0.285,-0.644C0.258,-0.644 0.238,-0.636 0.226,-0.62C0.217,-0.61 0.213,-0.585 0.213,-0.545L0.213,-0.117C0.213,-0.084 0.215,-0.062 0.22,-0.051C0.223,-0.043 0.23,-0.036 0.24,-0.03C0.254,-0.022 0.269,-0.018 0.285,-0.018L0.309,-0.018Z" style="fill-rule:nonzero;"/>
                    </g>
                    <g transform="matrix(300,0,0,300,211.732,330.488)">
                        <path d="M0.205,-0.331L0.205,-0.117C0.205,-0.084 0.207,-0.062 0.211,-0.051C0.215,-0.043 0.222,-0.036 0.232,-0.03C0.246,-0.022 0.261,-0.018 0.276,-0.018L0.299,-0.018L0.299,-0L0.017,-0L0.017,-0.018L0.04,-0.018C0.067,-0.018 0.087,-0.026 0.1,-0.042C0.107,-0.052 0.111,-0.077 0.111,-0.117L0.111,-0.545C0.111,-0.578 0.109,-0.601 0.105,-0.612C0.102,-0.62 0.095,-0.626 0.085,-0.632C0.071,-0.64 0.056,-0.644 0.04,-0.644L0.017,-0.644L0.017,-0.662L0.299,-0.662L0.299,-0.644L0.276,-0.644C0.261,-0.644 0.246,-0.64 0.232,-0.633C0.222,-0.628 0.215,-0.62 0.211,-0.609C0.207,-0.599 0.205,-0.577 0.205,-0.545L0.205,-0.342" style="fill-rule:nonzero;"/>
                    </g>
                    <g transform="matrix(6.12323e-17,-1,1,6.12323e-17,56.9068,432.122)">
                        <path d="M157.911,288.036C149.771,296.176 144.228,303.125 141.283,308.883C138.338,314.641 136.667,320.398 136.27,326.156L132.597,326.156L132.597,262.126L136.27,262.126C136.27,265.964 136.915,268.727 138.205,270.415C139.496,272.102 140.935,272.946 142.524,272.946C144.112,272.946 145.535,272.632 146.793,272.003C148.05,271.374 150.399,269.306 153.841,265.799L199.804,219.339L202.195,219.339L248.158,265.799C251.6,269.306 253.949,271.374 255.207,272.003C256.464,272.632 257.887,272.946 259.475,272.946C261.064,272.946 262.503,272.102 263.794,270.415C265.084,268.727 265.73,265.964 265.73,262.126L269.403,262.126L269.403,326.156L265.73,326.156C265.333,320.398 263.661,314.641 260.716,308.883C257.771,303.125 252.229,296.176 244.088,288.036L201,244.687L157.911,288.036Z" style="fill-rule:nonzero;"/>
                    </g>
                </g>
            </g>
        </g>
    </g>
</svg>
